<svg xmlns="http://www.w3.org/2000/svg" width="30.295" height="30.301" viewBox="0 0 30.295 30.301">
  <path id="Icon_awesome-football-ball" data-name="Icon awesome-football-ball" d="M28.395,3.647a3.114,3.114,0,0,0-2.2-2.206,26.424,26.424,0,0,0-6.18-.879L29.25,9.809a26.494,26.494,0,0,0-.855-6.163ZM.855,26.728a3.114,3.114,0,0,0,2.2,2.206,26.424,26.424,0,0,0,6.18.879L0,20.566A26.494,26.494,0,0,0,.855,26.728ZM.248,16.8,13,29.577a18.739,18.739,0,0,0,16.011-16L16.253.8A18.727,18.727,0,0,0,.248,16.8ZM18.959,9.514a.473.473,0,0,1,.666,0l.666.666a.473.473,0,0,1,0,.666l-1.669,1.669,1.669,1.669a.473.473,0,0,1,0,.666l-.666.666a.473.473,0,0,1-.666,0l-1.669-1.669-1.333,1.339,1.669,1.669a.473.473,0,0,1,0,.666l-.666.666a.473.473,0,0,1-.666,0L14.625,16.52l-1.333,1.333,1.669,1.669a.473.473,0,0,1,0,.666l-.666.666a.473.473,0,0,1-.666,0l-1.669-1.669-1.669,1.669a.473.473,0,0,1-.666,0l-.666-.666a.473.473,0,0,1,0-.666l1.669-1.669L8.958,16.19a.473.473,0,0,1,0-.666l.666-.666a.473.473,0,0,1,.666,0l1.669,1.669,1.333-1.333-1.669-1.669a.473.473,0,0,1,0-.666l.666-.666a.473.473,0,0,1,.666,0l1.669,1.669,1.333-1.333-1.669-1.669a.473.473,0,0,1,0-.666l.666-.666a.473.473,0,0,1,.666,0L17.291,11.2Z" transform="translate(0.523 -0.037)" fill="none" stroke="#253237" stroke-width="1"/>
</svg>
