<svg xmlns="http://www.w3.org/2000/svg" width="37.9" height="21.588" viewBox="0 0 37.9 21.588">
  <g id="weight" transform="translate(7 -110.182)">
    <g id="Group_9288" data-name="Group 9288" transform="translate(0 110.182)">
      <path id="Path_50321" data-name="Path 50321" d="M35.573,117.327h-.581v-1.581a3.31,3.31,0,0,0-3.306-3.306h-.825a3.05,3.05,0,0,0-6,.793v5.048H13.035v-5.048a3.05,3.05,0,0,0-6-.793H6.214a3.31,3.31,0,0,0-3.306,3.306v1.581H2.327A2.33,2.33,0,0,0,0,119.654v2.636a2.33,2.33,0,0,0,2.327,2.327h.581v1.589a3.31,3.31,0,0,0,3.306,3.306h.825a3.05,3.05,0,0,0,6-.793v-5.048H23.176a.555.555,0,0,0,0-1.11H13.035v-3.17h11.83v9.328a3.05,3.05,0,0,0,6,.793h.825a3.31,3.31,0,0,0,3.306-3.306v-1.589h.581A2.33,2.33,0,0,0,37.9,122.29v-2.636A2.33,2.33,0,0,0,35.573,117.327Zm-32.664,6.18H2.327A1.218,1.218,0,0,1,1.11,122.29v-2.636a1.218,1.218,0,0,1,1.217-1.217h.581Zm9.016,5.213a1.94,1.94,0,0,1-3.88,0v-11.2a.555.555,0,1,0-1.11,0V128.4h-.72a2.2,2.2,0,0,1-2.2-2.2V115.746a2.2,2.2,0,0,1,2.2-2.2h.72v1.508a.555.555,0,1,0,1.11,0v-1.826a1.94,1.94,0,0,1,3.88,0v15.487Zm17.931,0a1.94,1.94,0,0,1-3.88,0V113.232a1.94,1.94,0,0,1,3.88,0Zm4.025-2.513a2.2,2.2,0,0,1-2.2,2.2h-.72V113.55h.72a2.2,2.2,0,0,1,2.2,2.2Zm2.909-3.916a1.218,1.218,0,0,1-1.217,1.217h-.581v-5.07h.581a1.218,1.218,0,0,1,1.217,1.217Z" transform="translate(-7 -110.182)" fill="#253237"/>
    </g>
  </g>
</svg>
