<svg id="Group_240" data-name="Group 240" xmlns="http://www.w3.org/2000/svg" xmlns:xlink="http://www.w3.org/1999/xlink" width="45" height="45" viewBox="0 0 45 45">
  <defs>
    <clipPath id="clip-path">
      <rect id="Rectangle_7" data-name="Rectangle 7" width="20" height="18" transform="translate(0 0)" fill="#0b1d79"/>
    </clipPath>
  </defs>
  <circle id="Ellipse_2" data-name="Ellipse 2" cx="22.5" cy="22.5" r="22.5" fill="rgba(66,47,189,0.2)"/>
  <g id="Mask_Group_4" data-name="Mask Group 4" transform="translate(13 14)" clip-path="url(#clip-path)">
    <g id="linkedin-logo" transform="translate(1.559 1.392)">
      <path id="LinkedIn" d="M17.906,11.29v6.62H14.068V11.734c0-1.552-.555-2.611-1.944-2.611a2.1,2.1,0,0,0-1.969,1.4,2.626,2.626,0,0,0-.127.936V17.91H6.188s.052-10.461,0-11.545h3.839V8c-.008.012-.018.025-.025.037h.025V8a3.812,3.812,0,0,1,3.46-1.908C16.012,6.094,17.906,7.744,17.906,11.29ZM2.172.8a2,2,0,1,0-.051,3.99h.026A2,2,0,1,0,2.172.8ZM.228,17.91H4.066V6.365H.228Z" transform="translate(0 -0.8)" fill="#0b1d79"/>
    </g>
  </g>
</svg>
