<svg xmlns="http://www.w3.org/2000/svg" width="52.096" height="56.818" viewBox="0 0 52.096 56.818">
  <path id="Shape_127_copy" data-name="Shape 127 copy" d="M935.433,3121.493s1.854-3.09,2.4-10.166v.006c1.252-16.4,17.771-9.636,17.778-1.333a6.26,6.26,0,0,1-.372,2.128c-1.511,4.217-6.17,6.785-11.535,7.848s-8.267,1.517-8.267,1.517Zm22.1-18.556a33.824,33.824,0,0,0-2.318-2.809,6.776,6.776,0,0,0-2.822-1.944.949.949,0,0,1-.843-.975c.005-5.569,33.333-31.439,34.715-32.534,5.6.666-8.935,17.155-15.164,25.539-2.227,3-4.223,5.548-5.66,7.179-1.508,1.711-4.76,5.583-7.451,5.583A2.614,2.614,0,0,1,957.537,3102.936Z" transform="translate(-935.433 -3064.675)" fill="#ffe32c"/>
</svg>
