<svg xmlns="http://www.w3.org/2000/svg" xmlns:xlink="http://www.w3.org/1999/xlink" width="45" height="46" viewBox="0 0 45 46">
  <defs>
    <clipPath id="clip-path">
      <rect id="Rectangle_9" data-name="Rectangle 9" width="23" height="22" transform="translate(0 0)" fill="#0b1d79"/>
    </clipPath>
  </defs>
  <g id="Group_19" data-name="Group 19" transform="translate(0 0)">
    <ellipse id="Ellipse_3" data-name="Ellipse 3" cx="22.5" cy="23" rx="22.5" ry="23" transform="translate(0 0)" fill="rgba(66,47,189,0.2)"/>
    <g id="Mask_Group_6" data-name="Mask Group 6" transform="translate(11 12)" clip-path="url(#clip-path)">
      <g id="behance-logo" transform="translate(0.015 5.004)">
        <path id="Behance" d="M18.836,8.637H13.61v-1.3h5.227v1.3h0ZM10.131,13.96a3.432,3.432,0,0,1,.506,1.9,3.786,3.786,0,0,1-.577,2.071,3.591,3.591,0,0,1-.918,1.019,3.548,3.548,0,0,1-1.465.652,9.055,9.055,0,0,1-1.832.175H0V6.8H6.268A3.984,3.984,0,0,1,9.629,8.182a3.3,3.3,0,0,1,.593,1.982,2.889,2.889,0,0,1-.6,1.911,3.06,3.06,0,0,1-.988.738A2.882,2.882,0,0,1,10.131,13.96ZM2.993,11.917H5.739a2.6,2.6,0,0,0,1.372-.322,1.227,1.227,0,0,0,.526-1.141,1.162,1.162,0,0,0-.7-1.2,4.9,4.9,0,0,0-1.532-.2H2.993ZM7.9,15.676a1.392,1.392,0,0,0-.825-1.39,3.252,3.252,0,0,0-1.3-.22H2.993v3.459H5.736A3.047,3.047,0,0,0,7.05,17.3,1.636,1.636,0,0,0,7.9,15.676Zm12.873-2.111a12.207,12.207,0,0,1,.08,1.846H14.087a2.222,2.222,0,0,0,.972,1.961,2.447,2.447,0,0,0,1.34.349,1.888,1.888,0,0,0,1.848-1.064h2.481a3.022,3.022,0,0,1-.9,1.68,4.515,4.515,0,0,1-3.5,1.357,5.074,5.074,0,0,1-3.275-1.144,4.518,4.518,0,0,1-1.417-3.724,5.034,5.034,0,0,1,1.279-3.706A4.483,4.483,0,0,1,16.243,9.83a5.3,5.3,0,0,1,2.186.435,3.765,3.765,0,0,1,1.6,1.377A4.588,4.588,0,0,1,20.775,13.564Zm-2.442.242a2.03,2.03,0,0,0-.65-1.469,2.118,2.118,0,0,0-1.441-.5,1.927,1.927,0,0,0-1.45.533,2.505,2.505,0,0,0-.648,1.439h4.188Z" transform="translate(0 -6.8)" fill="#0b1d79"/>
      </g>
    </g>
  </g>
</svg>
