<svg xmlns="http://www.w3.org/2000/svg" width="17.988" height="17.988" viewBox="0 0 17.988 17.988">
  <path id="Icon_awesome-behance-square" data-name="Icon awesome-behance-square" d="M7.488,12.73c0,.775-.562,1.02-1.253,1.02H4.425V11.626H6.272C7.019,11.63,7.488,11.939,7.488,12.73Zm-.309-3.3c0-.711-.55-.879-1.16-.879H4.429v1.8H6.143c.606,0,1.036-.265,1.036-.919Zm5.312.932a1.2,1.2,0,0,0-1.273,1.193h2.5A1.144,1.144,0,0,0,12.491,10.357Zm5.5-6.179V18.311a1.928,1.928,0,0,1-1.927,1.927H1.927A1.928,1.928,0,0,1,0,18.311V4.177A1.928,1.928,0,0,1,1.927,2.25H16.061A1.928,1.928,0,0,1,17.988,4.177ZM10.909,8.393h3.124V7.634H10.909ZM9.183,12.822A2,2,0,0,0,7.778,10.75,1.5,1.5,0,0,0,8.83,9.265c0-1.534-1.144-1.907-2.465-1.907H2.73v7.709H6.469C7.87,15.059,9.183,14.388,9.183,12.822Zm6.075-.594A2.744,2.744,0,0,0,12.544,9.2a2.8,2.8,0,0,0-2.855,2.955,2.72,2.72,0,0,0,2.855,2.931,2.489,2.489,0,0,0,2.614-1.879H13.8a1.27,1.27,0,0,1-1.213.727,1.26,1.26,0,0,1-1.369-1.417h4.023C15.25,12.425,15.258,12.324,15.258,12.228Z" transform="translate(0 -2.25)" fill="#253237"/>
</svg>
