<svg xmlns="http://www.w3.org/2000/svg" xmlns:xlink="http://www.w3.org/1999/xlink" width="45" height="46" viewBox="0 0 45 46">
  <defs>
    <clipPath id="clip-path">
      <rect id="Rectangle_8" data-name="Rectangle 8" width="24.849" height="23.666" fill="#0b1d79"/>
    </clipPath>
  </defs>
  <g id="Group_18" data-name="Group 18" transform="translate(0 0)">
    <ellipse id="Ellipse_2" data-name="Ellipse 2" cx="22.5" cy="23" rx="22.5" ry="23" transform="translate(0 0)" fill="rgba(66,47,189,0.2)"/>
    <g id="Mask_Group_5" data-name="Mask Group 5" transform="translate(10 11)" clip-path="url(#clip-path)">
      <g id="dribbble_1_" data-name="dribbble (1)" transform="translate(1.94 1.952)">
        <path id="Path_6" data-name="Path 6" d="M20.9,4.684a4.441,4.441,0,0,0,1.141-2.22A10.225,10.225,0,0,0,11.671.7a26.63,26.63,0,0,1,4.81,6.7A10.9,10.9,0,0,0,20.9,4.684Zm0,0" transform="translate(-4.909 0)" fill="#0b1d79"/>
        <path id="Path_7" data-name="Path 7" d="M25.693,8a11.982,11.982,0,0,1-4.778,3c.247.543.475,1.1.689,1.658a15.041,15.041,0,0,1,3.163-.345,14.86,14.86,0,0,1,4.878.819c0-.07.011-.138.011-.208a10.335,10.335,0,0,0-2.72-6.984A6.06,6.06,0,0,1,25.693,8Zm0,0" transform="translate(-8.797 -2.501)" fill="#0b1d79"/>
        <path id="Path_8" data-name="Path 8" d="M.411,9.13a24.2,24.2,0,0,0,4.121.362,22.2,22.2,0,0,0,6.037-.827,25.289,25.289,0,0,0-4.83-6.534,10.606,10.606,0,0,0-5.328,7Zm0,0" transform="translate(-0.173 -0.896)" fill="#0b1d79"/>
        <path id="Path_9" data-name="Path 9" d="M30.337,19.91a13.576,13.576,0,0,0-4.773-.855,13.9,13.9,0,0,0-2.752.278,30.222,30.222,0,0,1,1.515,8.614A10.467,10.467,0,0,0,30.337,19.91Zm0,0" transform="translate(-9.596 -8.015)" fill="#0b1d79"/>
        <path id="Path_10" data-name="Path 10" d="M0,16.882a10.527,10.527,0,0,0,3.849,8.038,8.834,8.834,0,0,1,2.164-4.55,12.277,12.277,0,0,1,5.6-3.454c-.207-.534-.433-1.058-.672-1.574a23.3,23.3,0,0,1-6.587.928A25.439,25.439,0,0,1,.05,15.894c-.031.326-.05.655-.05.988Zm0,0" transform="translate(0 -6.454)" fill="#0b1d79"/>
        <path id="Path_11" data-name="Path 11" d="M10.547,23.162A7.382,7.382,0,0,0,8.61,27.709a10.321,10.321,0,0,0,8.523,1.123,29.02,29.02,0,0,0-1.486-8.788A11.058,11.058,0,0,0,10.547,23.162Zm0,0" transform="translate(-3.622 -8.431)" fill="#0b1d79"/>
      </g>
    </g>
  </g>
</svg>
