<svg xmlns="http://www.w3.org/2000/svg" xmlns:xlink="http://www.w3.org/1999/xlink" width="45" height="46" viewBox="0 0 45 46">
  <defs>
    <clipPath id="clip-path">
      <rect id="Rectangle_4" data-name="Rectangle 4" width="21" height="22" transform="translate(0 0)" fill="#0b1d79"/>
    </clipPath>
  </defs>
  <g id="Group_14" data-name="Group 14" transform="translate(0 0)">
    <ellipse id="Ellipse_2" data-name="Ellipse 2" cx="22.5" cy="23" rx="22.5" ry="23" transform="translate(0 0)" fill="rgba(66,47,189,0.2)"/>
    <g id="Mask_Group_1" data-name="Mask Group 1" transform="translate(12 12)" clip-path="url(#clip-path)">
      <g id="envelope_1_" data-name="envelope (1)" transform="translate(-0.154 1.936)">
        <g id="Group_10" data-name="Group 10">
          <path id="Path_1" data-name="Path 1" d="M2.034,8.133q.4.284,2.425,1.685t3.1,2.158q.118.083.5.361t.639.45q.254.171.615.384a3.569,3.569,0,0,0,.68.319,1.874,1.874,0,0,0,.591.106h.024a1.876,1.876,0,0,0,.591-.106,3.572,3.572,0,0,0,.68-.319q.361-.213.615-.384t.639-.45q.384-.278.5-.361l5.535-3.844a5.619,5.619,0,0,0,1.443-1.455,3.124,3.124,0,0,0,.58-1.786A1.908,1.908,0,0,0,19.3,3H1.892a1.689,1.689,0,0,0-1.4.615A2.387,2.387,0,0,0,0,5.153,2.763,2.763,0,0,0,.651,6.767,5.871,5.871,0,0,0,2.034,8.133Z" transform="translate(0 -3)" fill="#0b1d79"/>
          <path id="Path_2" data-name="Path 2" d="M20.012,11.123q-3.879,2.626-5.89,4.081-.674.5-1.094.775a6.751,6.751,0,0,1-1.118.568,3.4,3.4,0,0,1-1.3.29h-.024a3.4,3.4,0,0,1-1.3-.29,6.755,6.755,0,0,1-1.118-.568q-.42-.278-1.094-.775-1.6-1.171-5.878-4.081A6.265,6.265,0,0,1,0,10.094v9.391a1.822,1.822,0,0,0,.556,1.337,1.822,1.822,0,0,0,1.337.556H19.3A1.9,1.9,0,0,0,21.2,19.485V10.094A6.522,6.522,0,0,1,20.012,11.123Z" transform="translate(0 -4.724)" fill="#0b1d79"/>
        </g>
      </g>
    </g>
  </g>
</svg>
