<svg xmlns="http://www.w3.org/2000/svg" xmlns:xlink="http://www.w3.org/1999/xlink" width="21" height="21" viewBox="0 0 21 21">
  <defs>
    <clipPath id="clip-path">
      <rect id="Rectangle_4" data-name="Rectangle 4" width="9" height="10" transform="translate(0.366 -0.315)" fill="#9381ff"/>
    </clipPath>
  </defs>
  <g id="Group_9298" data-name="Group 9298" transform="translate(-144 -322)">
    <circle id="Ellipse_2" data-name="Ellipse 2" cx="10.5" cy="10.5" r="10.5" transform="translate(144 322)" fill="rgba(184,184,255,0.33)"/>
    <g id="Mask_Group_1" data-name="Mask Group 1" transform="translate(149.635 328.316)" clip-path="url(#clip-path)">
      <g id="envelope_1_" data-name="envelope (1)" transform="translate(-0.391 1.07)">
        <g id="Group_10" data-name="Group 10">
          <path id="Path_1" data-name="Path 1" d="M.875,5.207q.173.122,1.042.725t1.332.928l.216.155q.165.12.275.193T4,7.373A1.534,1.534,0,0,0,4.3,7.51a.806.806,0,0,0,.254.046h.01a.806.806,0,0,0,.254-.046,1.536,1.536,0,0,0,.292-.137q.155-.092.264-.165t.275-.193l.216-.155,2.38-1.653a2.416,2.416,0,0,0,.62-.625,1.343,1.343,0,0,0,.249-.768A.82.82,0,0,0,8.3,3H.814a.726.726,0,0,0-.6.264A1.026,1.026,0,0,0,0,3.926a1.188,1.188,0,0,0,.28.694A2.524,2.524,0,0,0,.875,5.207Z" transform="translate(0 -3)" fill="#9381ff"/>
          <path id="Path_2" data-name="Path 2" d="M8.6,10.536Q6.936,11.665,6.071,12.29q-.29.213-.47.333a2.9,2.9,0,0,1-.481.244,1.463,1.463,0,0,1-.559.125h-.01a1.464,1.464,0,0,1-.559-.125,2.9,2.9,0,0,1-.481-.244q-.18-.119-.47-.333-.686-.5-2.527-1.754A2.693,2.693,0,0,1,0,10.094v4.037a.783.783,0,0,0,.239.575.783.783,0,0,0,.575.239H8.3a.816.816,0,0,0,.814-.814V10.094A2.8,2.8,0,0,1,8.6,10.536Z" transform="translate(0 -7.785)" fill="#9381ff"/>
        </g>
      </g>
    </g>
  </g>
</svg>
