<svg xmlns="http://www.w3.org/2000/svg" width="17.989" height="17.989" viewBox="0 0 17.989 17.989">
  <path id="Icon_awesome-facebook-square" data-name="Icon awesome-facebook-square" d="M16.061,2.25H1.927A1.927,1.927,0,0,0,0,4.177V18.311a1.927,1.927,0,0,0,1.927,1.927H7.438V14.123H4.909V11.244h2.53V9.05A3.513,3.513,0,0,1,11.2,5.176a15.325,15.325,0,0,1,2.229.194V7.82H12.173A1.439,1.439,0,0,0,10.55,9.375v1.869h2.762l-.442,2.879H10.55v6.116h5.511a1.927,1.927,0,0,0,1.927-1.927V4.177A1.927,1.927,0,0,0,16.061,2.25Z" transform="translate(0 -2.25)" fill="#253237"/>
</svg>
