<svg xmlns="http://www.w3.org/2000/svg" width="50.625" height="69.474" viewBox="0 0 50.625 69.474">
  <path id="Shape_128" data-name="Shape 128" d="M959.547,2976.486c-.928.383-7.514,3.661-7.641,3.834-.526.722-.429,4.015-.429,5.211v32.675c-5.968,0-13.872-1.2-15.859,6.461-1.632,6.276,4.84,11.31,12.251,9.131,7.595-2.236,5.968-9.824,5.968-16.61v-26.74l11.924-5.5c.974-.421,1.621-.786,2.555-1.168l15.372-7.126v28.11c-5.951,0-13.7-.943-15.836,5.969-.86,2.781-.023,6.318,2.17,7.989,6.341,4.835,15.711,1.1,15.865-5.447.229-9.637-.005-19.6-.005-29.275v-14.633c0-4.917.676-5.714-4.777-2.948l-21.558,10.073Z" transform="translate(-935.363 -2964.84)" fill="#ffe32c"/>
</svg>
