<svg xmlns="http://www.w3.org/2000/svg" xmlns:xlink="http://www.w3.org/1999/xlink" width="45" height="45" viewBox="0 0 45 45">
  <defs>
    <clipPath id="clip-path">
      <rect id="Rectangle_5" data-name="Rectangle 5" width="24.849" height="24.849" fill="#0b1d79"/>
    </clipPath>
  </defs>
  <g id="Group_15" data-name="Group 15" transform="translate(0 0)">
    <circle id="Ellipse_2" data-name="Ellipse 2" cx="22.5" cy="22.5" r="22.5" transform="translate(0 0)" fill="rgba(66,47,189,0.2)"/>
    <g id="Mask_Group_3" data-name="Mask Group 3" transform="translate(10 10)" clip-path="url(#clip-path)">
      <g id="telephone" transform="translate(1.94 1.706)">
        <g id="Group_11" data-name="Group 11">
          <path id="Path_3" data-name="Path 3" d="M15.857,15.251a1.461,1.461,0,0,0-2.209,0c-.516.512-1.033,1.024-1.541,1.545a.3.3,0,0,1-.425.078c-.334-.182-.69-.33-1.011-.53A16.023,16.023,0,0,1,6.808,12.83a9.151,9.151,0,0,1-1.385-2.218A.318.318,0,0,1,5.5,10.2c.516-.5,1.02-1.011,1.528-1.523a1.467,1.467,0,0,0,0-2.261c-.4-.408-.807-.807-1.211-1.215s-.829-.838-1.25-1.25a1.471,1.471,0,0,0-2.209,0C1.834,4.47,1.335,5,.805,5.5a2.515,2.515,0,0,0-.79,1.7,7.19,7.19,0,0,0,.556,3.095,18.8,18.8,0,0,0,3.338,5.56,20.654,20.654,0,0,0,6.84,5.352,9.893,9.893,0,0,0,3.789,1.1,2.777,2.777,0,0,0,2.383-.907c.443-.495.942-.946,1.411-1.419a1.477,1.477,0,0,0,.009-2.248Q17.1,16.486,15.857,15.251Z" transform="translate(0 -1.454)" fill="#0b1d79"/>
          <path id="Path_4" data-name="Path 4" d="M22.523,13.363l1.6-.273a7.189,7.189,0,0,0-6.081-5.9L17.818,8.8a5.556,5.556,0,0,1,4.7,4.562Z" transform="translate(-7.495 -3.025)" fill="#0b1d79"/>
          <path id="Path_5" data-name="Path 5" d="M25.182,3.377A11.809,11.809,0,0,0,18.411,0l-.226,1.61a10.3,10.3,0,0,1,8.72,8.45l1.6-.273A11.9,11.9,0,0,0,25.182,3.377Z" transform="translate(-7.649)" fill="#0b1d79"/>
        </g>
      </g>
    </g>
  </g>
</svg>
