<svg xmlns="http://www.w3.org/2000/svg" xmlns:xlink="http://www.w3.org/1999/xlink" width="21" height="20" viewBox="0 0 21 20">
  <defs>
    <clipPath id="clip-path">
      <rect id="Rectangle_5" data-name="Rectangle 5" width="9" height="9" transform="translate(0.366 -0.083)" fill="#9381ff"/>
    </clipPath>
  </defs>
  <g id="Group_9299" data-name="Group 9299" transform="translate(-144 -351)">
    <ellipse id="Ellipse_2" data-name="Ellipse 2" cx="10.5" cy="10" rx="10.5" ry="10" transform="translate(144 351)" fill="rgba(184,184,255,0.33)"/>
    <g id="Mask_Group_3" data-name="Mask Group 3" transform="translate(149.635 356.083)" clip-path="url(#clip-path)">
      <g id="telephone" transform="translate(-0.318 -0.845)">
        <g id="Group_11" data-name="Group 11">
          <path id="Path_3" data-name="Path 3" d="M6.817,8.527a.628.628,0,0,0-.95,0c-.222.22-.444.44-.662.664a.131.131,0,0,1-.183.034c-.144-.078-.3-.142-.435-.228A6.888,6.888,0,0,1,2.927,7.486a3.934,3.934,0,0,1-.6-.953.137.137,0,0,1,.034-.175c.222-.215.438-.435.657-.655a.631.631,0,0,0,0-.972c-.174-.175-.347-.347-.521-.522s-.356-.36-.537-.537a.632.632,0,0,0-.95,0c-.224.22-.438.446-.666.662a1.081,1.081,0,0,0-.34.73,3.091,3.091,0,0,0,.239,1.33,8.084,8.084,0,0,0,1.435,2.39,8.879,8.879,0,0,0,2.941,2.3,4.253,4.253,0,0,0,1.629.474,1.194,1.194,0,0,0,1.024-.39c.19-.213.4-.407.606-.61a.635.635,0,0,0,0-.967Q7.353,9.058,6.817,8.527Z" transform="translate(0 -2.595)" fill="#9381ff"/>
          <path id="Path_4" data-name="Path 4" d="M19.841,9.845l.689-.118a3.091,3.091,0,0,0-2.614-2.536l-.1.692a2.388,2.388,0,0,1,2.023,1.961Z" transform="translate(-13.38 -5.4)" fill="#9381ff"/>
          <path id="Path_5" data-name="Path 5" d="M21.193,1.452A5.077,5.077,0,0,0,18.282,0l-.1.692a4.43,4.43,0,0,1,3.749,3.633l.689-.118A5.114,5.114,0,0,0,21.193,1.452Z" transform="translate(-13.656)" fill="#9381ff"/>
        </g>
      </g>
    </g>
  </g>
</svg>
