<svg id="Group_112" data-name="Group 112" xmlns="http://www.w3.org/2000/svg" width="67.05" height="58.3" viewBox="0 0 67.05 58.3">
  <path id="Path_55" data-name="Path 55" d="M33.525,0c11.2,0,12.319,10.038,18.453,18.542C55.907,23.988,67.05,26.21,67.05,33.523c0,18.514-9.45,24.74-27.965,24.74-13.275,0-21.426,1.2-26.9-10.075C10.085,43.858,0,38.763,0,33.523A33.524,33.524,0,0,1,33.525,0Z" transform="translate(0 0)" fill="rgba(66,47,189,0.2)"/>
  <g id="study" transform="translate(22.661 18.518)">
    <g id="Group_84" data-name="Group 84" transform="translate(6.913)">
      <g id="Group_83" data-name="Group 83">
        <path id="Path_46" data-name="Path 46" d="M169.748,0A3.769,3.769,0,1,0,173.5,3.79,3.788,3.788,0,0,0,169.748,0Z" transform="translate(-166)" fill="#0b1d79"/>
      </g>
    </g>
    <g id="Group_86" data-name="Group 86" transform="translate(6.905 7.537)">
      <g id="Group_85" data-name="Group 85">
        <path id="Path_47" data-name="Path 47" d="M170.815,181h-2.5a5.6,5.6,0,0,0-2.507.615,15.674,15.674,0,0,1,3.756,1.556,15.675,15.675,0,0,1,3.756-1.556A5.6,5.6,0,0,0,170.815,181Z" transform="translate(-165.81 -181)" fill="#0b1d79"/>
      </g>
    </g>
    <g id="Group_88" data-name="Group 88" transform="translate(18.823 11.285)">
      <g id="Group_87" data-name="Group 87">
        <path id="Path_48" data-name="Path 48" d="M453.249,271A1.249,1.249,0,0,0,452,272.249v2.5a1.249,1.249,0,1,0,2.5,0v-2.5A1.249,1.249,0,0,0,453.249,271Z" transform="translate(-452 -271)" fill="#0b1d79"/>
      </g>
    </g>
    <g id="Group_90" data-name="Group 90" transform="translate(0 11.285)">
      <g id="Group_89" data-name="Group 89">
        <path id="Path_49" data-name="Path 49" d="M1.249,271A1.249,1.249,0,0,0,0,272.249v2.5a1.249,1.249,0,1,0,2.5,0v-2.5A1.249,1.249,0,0,0,1.249,271Z" transform="translate(0 -271)" fill="#0b1d79"/>
      </g>
    </g>
    <g id="Group_92" data-name="Group 92" transform="translate(1.249 8.787)">
      <g id="Group_91" data-name="Group 91">
        <path id="Path_50" data-name="Path 50" d="M30.625,211a.624.624,0,0,0-.625.625v.625a2.5,2.5,0,0,1,2.5,2.5v2.5a2.5,2.5,0,0,1-2.5,2.5v.625a.624.624,0,0,0,.625.625,14.648,14.648,0,0,1,8.162,2.54V213.024A15.756,15.756,0,0,0,30.625,211Z" transform="translate(-30 -211)" fill="#0b1d79"/>
      </g>
    </g>
    <g id="Group_94" data-name="Group 94" transform="translate(11.285 8.787)">
      <g id="Group_93" data-name="Group 93">
        <path id="Path_51" data-name="Path 51" d="M279.787,212.249v-.625a.624.624,0,0,0-.625-.625A15.756,15.756,0,0,0,271,213.024v10.511a14.648,14.648,0,0,1,8.162-2.54.624.624,0,0,0,.625-.625v-.625a2.5,2.5,0,0,1-2.5-2.5v-2.5A2.5,2.5,0,0,1,279.787,212.249Z" transform="translate(-271 -211)" fill="#0b1d79"/>
      </g>
    </g>
  </g>
</svg>
