<svg xmlns="http://www.w3.org/2000/svg" width="26.335" height="32.25" viewBox="0 0 26.335 32.25">
  <path id="Icon_awesome-running" data-name="Icon awesome-running" d="M16.762,5.916A2.958,2.958,0,1,0,13.8,2.958,2.958,2.958,0,0,0,16.762,5.916ZM7.006,19.564l-.912,2.127H1.972a1.972,1.972,0,1,0,0,3.944H6.745a2.952,2.952,0,0,0,2.718-1.793L10,22.578l-.658-.388A5.868,5.868,0,0,1,7.006,19.564ZM23.663,13.8H20.95l-1.606-3.281a5.913,5.913,0,0,0-3.807-3.139l-4.38-1.3A5.891,5.891,0,0,0,6.175,7.136L3.731,9.01a1.972,1.972,0,0,0,2.4,3.129l2.446-1.874a1.919,1.919,0,0,1,1.557-.378l.906.269L8.731,15.541a3.954,3.954,0,0,0,1.621,4.949l5.237,3.092L13.9,28.988a1.972,1.972,0,1,0,3.763,1.178l1.95-6.228a2.97,2.97,0,0,0-1.334-3.352L14.5,18.36l1.929-4.824,1.249,2.553a2.976,2.976,0,0,0,2.657,1.657h3.327a1.972,1.972,0,1,0,0-3.943Z" transform="translate(0.35 0.35)" fill="none" stroke="#253237" stroke-width="0.7"/>
</svg>
