<svg xmlns="http://www.w3.org/2000/svg" width="27.496" height="21.134" viewBox="0 0 27.496 21.134">
  <g id="swimmer" transform="translate(0.376 -59.314)">
    <path id="Path_50328" data-name="Path 50328" d="M1,75.693c10.165-2.89,13.881,2.95,25.164,0a.784.784,0,1,0-.4-1.516,23.09,23.09,0,0,1-5.874.795l-2.272-3.662a3.507,3.507,0,1,0-.45-.725l-3.109-5.01,4.613-1.331a2.319,2.319,0,0,0-1.286-4.455l-6.984,2.015a2.842,2.842,0,0,0-1.627,4.23l2.111,3.4c-1.522.945-6.348,3.937-6.4,3.973a23.2,23.2,0,0,0-3.92.773A.784.784,0,0,0,1,75.693Zm17.946-7.91a1.946,1.946,0,1,1,.084,2.751A1.946,1.946,0,0,1,18.946,67.783Zm-6.311,1.5-2.524-4.068a1.275,1.275,0,0,1,.73-1.9L17.826,61.3a.751.751,0,1,1,.417,1.444L12.635,64.36a.784.784,0,0,0-.449,1.166L18,74.9c-3.656-.307-6.627-1.41-10.389-1.577l4.772-2.961a.784.784,0,0,0,.253-1.079Z" transform="translate(-0.002 0)" fill="none" stroke="#253237" stroke-width="0.7"/>
    <path id="Path_50329" data-name="Path 50329" d="M25.766,390.773c-10.8,2.818-14.584-3.013-25.2,0A.784.784,0,1,0,1,392.285c10.165-2.89,13.881,2.95,25.164,0a.784.784,0,0,0-.4-1.517Z" transform="translate(0 -312.935)" fill="none" stroke="#253237" stroke-width="0.7"/>
  </g>
</svg>
