<svg xmlns="http://www.w3.org/2000/svg" width="59.838" height="61.761" viewBox="0 0 59.838 61.761">
  <path id="Shape_130" data-name="Shape 130" d="M1468.948,3131.866l-4.065-4.171a.853.853,0,0,1,.059-1.183l11.105-11.39a.8.8,0,0,1,1.155-.058l4.065,4.169a.855.855,0,0,1-.058,1.184l-11.1,11.387a.892.892,0,0,1-.633.278A.719.719,0,0,1,1468.948,3131.866Zm9.405-17.072c.083-.085.167-.17.256-.254a22.729,22.729,0,0,0,6.476-12.887,16.5,16.5,0,0,0,2.856,5.034,21.164,21.164,0,0,1-1.167,3.035,11.7,11.7,0,0,1,2.922-1.244,15.8,15.8,0,0,0,4.9,2.917l-.013,0a21.72,21.72,0,0,0-12.566,6.637c-.083.088-.167.172-.25.265Zm11.96-9.407c-4.711-4.83-5.863-12.089-3.657-18.859a10.235,10.235,0,0,0,6.262,1.687,12.029,12.029,0,0,0,2.511,11.932c4.592,4.71,12.618,4.1,17.932-1.339s5.9-13.682,1.306-18.389c-3.059-3.138-7.639-3.915-11.933-2.478a10.885,10.885,0,0,0-1.764-6.367c6.72-2.451,14-1.333,18.808,3.6h-.006c7.031,7.209,6.131,19.813-2,28.154a22.011,22.011,0,0,1-15.561,6.913A16.364,16.364,0,0,1,1490.314,3105.387Zm-1.768-22.878a7.19,7.19,0,0,1,0-9.987,6.759,6.759,0,0,1,3.512-1.927,8.932,8.932,0,0,0,2.511,5.744,8.5,8.5,0,0,0,5.594,2.572,7.059,7.059,0,0,1-1.879,3.6,6.765,6.765,0,0,1-9.738,0Zm-2-5.241a7.364,7.364,0,0,1,4.919,2.238,7.745,7.745,0,0,1,2.183,5.043,6.576,6.576,0,0,0,1.139-.132,8.93,8.93,0,0,0-2.511-5.744,8.522,8.522,0,0,0-5.6-2.574A7.1,7.1,0,0,0,1486.542,3077.268Zm13.621,1.643c.006-.031.012-.061.017-.091l.005.007c-.005.031-.011.056-.017.085Zm.048-.26a.509.509,0,0,1-.013.091A.408.408,0,0,1,1500.211,3078.652Zm.023-.173a.376.376,0,0,1-.013.09C1500.229,3078.539,1500.229,3078.51,1500.234,3078.479Zm.018-.169c-.006.028-.006.065-.013.1C1500.246,3078.375,1500.246,3078.338,1500.252,3078.31Zm.018-.173a.569.569,0,0,1-.013.1C1500.264,3078.205,1500.264,3078.173,1500.27,3078.137Zm.012-.178c0,.038-.006.074-.006.111C1500.276,3078.032,1500.282,3078,1500.282,3077.959Zm.005-.166c0,.038-.005.079-.005.116C1500.282,3077.867,1500.287,3077.831,1500.287,3077.793Zm-4.919-2.3a7.744,7.744,0,0,1-2.182-5.046,6.793,6.793,0,0,1,5.087,2.063l.005,0a7.132,7.132,0,0,1,2.01,5.217A7.377,7.377,0,0,1,1495.368,3075.494Zm-3.31-4.9.015,0-.015,0Zm.039-.008-.024,0Zm.044-.009-.044.009Zm.167-.031-.09.018Zm.16-.018c-.03.006-.058.006-.089.011A.518.518,0,0,1,1492.469,3070.529Zm.167-.025c-.03.006-.065.006-.1.013C1492.572,3070.51,1492.607,3070.51,1492.637,3070.5Zm.167-.018c-.036.005-.066.005-.1.013A.441.441,0,0,1,1492.8,3070.486Zm.167-.007c-.036,0-.071.007-.107.007C1492.9,3070.486,1492.934,3070.479,1492.97,3070.479Zm.167-.012c-.035,0-.071.005-.113.005C1493.06,3070.472,1493.1,3070.467,1493.137,3070.467Z" transform="translate(-1464.672 -3070.321)" fill="#ffe32c"/>
</svg>
