<svg id="TOURISM" xmlns="http://www.w3.org/2000/svg" width="53.521" height="47.445" viewBox="0 0 53.521 47.445">
  <path id="Path_742" data-name="Path 742" d="M1118.074,657.679h-40.552l21.175-40.422,20.34,38.829a1.071,1.071,0,0,1-.031,1.065A1.083,1.083,0,0,1,1118.074,657.679Zm-37.594-1.792h36.432L1098.7,621.115Z" transform="translate(-1065.643 -610.235)" fill="#343240"/>
  <path id="Path_743" data-name="Path 743" d="M1099.571,634.776l-1.79-1.792-1.792,1.792-1.789-1.792-1.792,1.792-3.671-3.674,7.252-13.846,7.254,13.846Zm-1.79-4.326,1.79,1.792,1.474-1.476-5.056-9.652-5.057,9.652,1.476,1.476,1.792-1.792,1.789,1.792Z" transform="translate(-1062.934 -610.235)" fill="#343240"/>
  <path id="Path_744" data-name="Path 744" d="M1081.858,653.628H1068.4l-.325-.517a.966.966,0,0,1,.049-1l10.326-15.84a4.957,4.957,0,0,1,7.97-.448l2.919,3.53Zm-11.422-1.792h10.337l6.42-12.255-2.158-2.616a3.167,3.167,0,0,0-5.089.286Z" transform="translate(-1067.954 -606.184)" fill="#343240"/>
  <path id="Path_745" data-name="Path 745" d="M1078.668,625.925a7.162,7.162,0,1,1,7.161-7.164A7.173,7.173,0,0,1,1078.668,625.925Zm0-12.535a5.371,5.371,0,1,0,5.372,5.371A5.378,5.378,0,0,0,1078.668,613.39Z" transform="translate(-1067.097 -611.601)" fill="#343240"/>
  <path id="Path_746" data-name="Path 746" d="M1088.987,653.256a.9.9,0,0,1-.9-.894v-15.9a.9.9,0,0,1,1.792,0v15.9A.9.9,0,0,1,1088.987,653.256Z" transform="translate(-1063.091 -605.811)" fill="#343240"/>
  <path id="Path_747" data-name="Path 747" d="M1086.1,640.765a.9.9,0,1,1,0-1.79,2.687,2.687,0,0,0,2.684-2.687.9.9,0,0,1,1.792,0A4.482,4.482,0,0,1,1086.1,640.765Z" transform="translate(-1063.787 -605.854)" fill="#343240"/>
  <path id="Path_748" data-name="Path 748" d="M1084.659,645.439a.9.9,0,1,1,0-1.79,4.48,4.48,0,0,0,4.474-4.476.9.9,0,0,1,1.792,0A6.273,6.273,0,0,1,1084.659,645.439Z" transform="translate(-1064.136 -605.157)" fill="#343240"/>
  <path id="Path_749" data-name="Path 749" d="M1083.216,650.114a.895.895,0,1,1,0-1.789,6.274,6.274,0,0,0,6.266-6.269.9.9,0,0,1,1.792,0A8.065,8.065,0,0,1,1083.216,650.114Z" transform="translate(-1064.484 -604.461)" fill="#343240"/>
  <path id="Path_750" data-name="Path 750" d="M1092.565,640.765a4.483,4.483,0,0,1-4.476-4.477.9.9,0,0,1,1.792,0,2.688,2.688,0,0,0,2.684,2.687.9.9,0,1,1,0,1.79Z" transform="translate(-1063.091 -605.854)" fill="#343240"/>
  <path id="Path_751" data-name="Path 751" d="M1094.356,645.439a6.275,6.275,0,0,1-6.267-6.266.9.9,0,0,1,1.792,0,4.481,4.481,0,0,0,4.476,4.476.9.9,0,0,1,0,1.79Z" transform="translate(-1063.091 -605.157)" fill="#343240"/>
  <path id="Path_752" data-name="Path 752" d="M1096.145,650.114a8.066,8.066,0,0,1-8.057-8.058.9.9,0,0,1,1.792,0,6.273,6.273,0,0,0,6.265,6.269.895.895,0,1,1,0,1.789Z" transform="translate(-1063.091 -604.461)" fill="#343240"/>
  <path id="Path_753" data-name="Path 753" d="M1100.522,653.256a.894.894,0,0,1-.9-.894v-15.9a.895.895,0,1,1,1.789,0v15.9A.9.9,0,0,1,1100.522,653.256Z" transform="translate(-1060.304 -605.811)" fill="#343240"/>
  <path id="Path_754" data-name="Path 754" d="M1097.637,640.765a.9.9,0,1,1,0-1.79,2.689,2.689,0,0,0,2.687-2.687.895.895,0,0,1,1.789,0A4.482,4.482,0,0,1,1097.637,640.765Z" transform="translate(-1061.001 -605.854)" fill="#343240"/>
  <path id="Path_755" data-name="Path 755" d="M1096.195,645.439a.9.9,0,0,1,0-1.79,4.482,4.482,0,0,0,4.477-4.476.895.895,0,1,1,1.789,0A6.274,6.274,0,0,1,1096.195,645.439Z" transform="translate(-1061.349 -605.157)" fill="#343240"/>
  <path id="Path_756" data-name="Path 756" d="M1094.752,650.114a.895.895,0,1,1,0-1.789,6.276,6.276,0,0,0,6.268-6.269.895.895,0,1,1,1.789,0A8.065,8.065,0,0,1,1094.752,650.114Z" transform="translate(-1061.698 -604.461)" fill="#343240"/>
  <path id="Path_757" data-name="Path 757" d="M1104.1,640.765a4.481,4.481,0,0,1-4.473-4.477.895.895,0,0,1,1.789,0,2.688,2.688,0,0,0,2.684,2.687.9.9,0,1,1,0,1.79Z" transform="translate(-1060.304 -605.854)" fill="#343240"/>
  <path id="Path_758" data-name="Path 758" d="M1105.893,645.439a6.273,6.273,0,0,1-6.266-6.266.895.895,0,1,1,1.789,0,4.482,4.482,0,0,0,4.477,4.476.9.9,0,0,1,0,1.79Z" transform="translate(-1060.304 -605.157)" fill="#343240"/>
  <path id="Path_759" data-name="Path 759" d="M1107.681,650.114a8.064,8.064,0,0,1-8.054-8.058.895.895,0,1,1,1.789,0,6.274,6.274,0,0,0,6.265,6.269.895.895,0,1,1,0,1.789Z" transform="translate(-1060.304 -604.461)" fill="#343240"/>
  <path id="Path_760" data-name="Path 760" d="M1106.076,624.713a.894.894,0,0,1-.9-.9,3.945,3.945,0,0,0-3.939-3.938.895.895,0,0,1,0-1.789,5.734,5.734,0,0,1,5.73,5.727A.9.9,0,0,1,1106.076,624.713Z" transform="translate(-1060.13 -610.033)" fill="#343240"/>
  <path id="Path_761" data-name="Path 761" d="M1105.136,624.4a.894.894,0,0,1-.9-.9,4.123,4.123,0,0,1,4.118-4.117.895.895,0,0,1,0,1.789,2.331,2.331,0,0,0-2.328,2.328A.9.9,0,0,1,1105.136,624.4Z" transform="translate(-1059.19 -609.72)" fill="#343240"/>
</svg>
