<svg xmlns="http://www.w3.org/2000/svg" width="49.064" height="74.102" viewBox="0 0 49.064 74.102">
  <path id="Shape_135" data-name="Shape 135" d="M2051.952,3032.991a4.45,4.45,0,0,1-1.5-2.325l-11.483-25.347a11.646,11.646,0,0,1-1.736-4.47,12.693,12.693,0,0,1,.793-4.337l3.679-16.123.334-1.327a6.036,6.036,0,0,1,2.164-2.574,6.23,6.23,0,0,1,3.829-1.246l1.5.167a5.889,5.889,0,0,1,2.915,1.493,6.35,6.35,0,0,1,2.082,3.652l3.209,10,5.453,1.137,2.821-9.829a1.515,1.515,0,0,1,1.664-.957q1.6.093,1.537,1.286l-.254,1.1-2.606,9.063,2.147.448a2.864,2.864,0,0,1,2.331,2.985,2.6,2.6,0,0,1-.915,1.992,3.228,3.228,0,0,1-2.249.83h-.5l-2.462-.524-7.4,25.719,1.8,4.878v.828a4.456,4.456,0,0,1-1.248,3.156,4.058,4.058,0,0,1-3.081,1.326A4.2,4.2,0,0,1,2051.952,3032.991Zm-2.755-31.146,6.235,16.875,6.117-21.311-6.475-1.377-.5-.166a1.729,1.729,0,0,1-1.083-.5,2.28,2.28,0,0,1-.749-1.329l-1.38-3.189Zm-17.945,30.515A4.454,4.454,0,0,1,2030,3029.2v-.828l6-24.093,6.026,13.611-3.37,12.639a4.146,4.146,0,0,1-4.328,3.153A4.061,4.061,0,0,1,2031.252,3032.359Zm-.357-32.1-5.478-.1c-5.306-.456-3.67-2.188-2.233-8.244,1.553-6.555,6.055-8.537,6.719-10.234-1.559-.317-2.212-2.021.491-3.925,1.071-.751,6.446-2.2,6.446-2.2,1.626-.427,2.191-.334,2.849.887l-.112,1.236c0,.011-.561,3.184-.563,3.2l-4.151,17.427q-.677,1.991-3.276,1.992Q2031.257,3000.287,2030.9,3000.254Zm16.758-28.047a6.973,6.973,0,0,1,0-10.207,7.311,7.311,0,0,1,5.216-2.116,7.22,7.22,0,1,1,0,14.439A7.308,7.308,0,0,1,2047.653,2972.208Z" transform="translate(-2021.766 -2959.885)" fill="#ffe32c"/>
</svg>
