<svg xmlns="http://www.w3.org/2000/svg" width="58.302" height="44.767" viewBox="0 0 58.302 44.767">
  <path id="Shape_131" data-name="Shape 131" d="M2014.447,3081.618c6.559-7.133,18.679-8.244,27.395,1.13,9.567-10.288,23.231-7.951,29.143,1.119V3116.1c0,3.8-1.225,4.5-3.658,3.116a22.78,22.78,0,0,0-9.693-2.84,25.1,25.1,0,0,0-14.81,3.777l-.978.6-.978-.6q-12.644-7.5-25.312-.509c-2.629,1.45-2.854-.155-2.854-1.953v-30.744c0-3.095-.332-3.072,1.75-5.329Zm51.748,2.058c-5.071-5.069-13.851-5.821-20.443.735-1.6,1.594-1.305,1.37-1.305,3.717V3111.6c0,3.3-.079,3.528,1.507,2.658a18.706,18.706,0,0,1,20.33-.092c1.526.858,1.67.38,1.67-2.7v-23.134c0-2.705.164-2.732-1.763-4.657Zm-49.3.639c4.823-5.491,13.758-6.666,20.564-.417,2.306,2.116,1.848,2.031,1.848,5.265v22.99c0,3.626-.136,2.837-2,1.816a20.051,20.051,0,0,0-10.338-2.759,18.937,18.937,0,0,0-9.066,2.664c-1.67.978-2.082.978-2.171-2.039v-23.857c0-2.144-.234-2.08,1.16-3.671Z" transform="translate(-2012.683 -3075.991)" fill="#ffe32c"/>
</svg>
