<svg id="aviation" xmlns="http://www.w3.org/2000/svg" width="39.67" height="44.615" viewBox="0 0 39.67 44.615">
  <path id="ICO" d="M1198.825,732.791l14.063,7.309a.994.994,0,0,0,1.276-1.445l-3.286-4.785a2.149,2.149,0,0,0,.222-.339l.7-1.346a2.07,2.07,0,0,0-3.542-2.132l-1.466-2.132.575-1.1a2.077,2.077,0,0,0-2.467-2.939,2.093,2.093,0,0,0-.647.346l-.437-.634c3.808-7.869,5.647-16.333,2.862-17.781s-8.451,5.174-12.747,12.856l-1.086.01a2.072,2.072,0,0,0-3.895-1.218l-.658,1.266-2.569.026a2.074,2.074,0,0,0-.916-2.72,2.082,2.082,0,0,0-2.8.885l-.7,1.346a2.07,2.07,0,0,0-.182.538l-5.473.056a.994.994,0,0,0-.448,1.875l14.069,7.311a38.628,38.628,0,0,0-2.185,8.544c-.139.837-.274,1.635-.427,2.355l-7.367,2.328a.995.995,0,0,0,.353,1.941c.068,0,7.051-.284,12.677,6.646a.991.991,0,0,0,1.714-.924l-2.323-7.347c.258-.284.53-.582.816-.89A54.471,54.471,0,0,0,1198.825,732.791Zm-14.838,9.078,3.82-1.209a.992.992,0,0,0,.664-.713c.219-.92.392-1.945.574-3.032a34.311,34.311,0,0,1,2.407-8.92.989.989,0,0,0-.445-1.29l-11.361-5.9,2.142-.022a2.287,2.287,0,0,0,.4.282,2.065,2.065,0,0,0,2.35-.31l3.707-.04a2.069,2.069,0,0,0,.883.893,2.045,2.045,0,0,0,1.583.137,2.064,2.064,0,0,0,1.217-1.022l.024-.046,2.571-.026a.993.993,0,0,0,.86-.516c4.705-8.629,9.068-12.447,10.357-12.533.534.99.618,6.364-3.964,15.642a.992.992,0,0,0,.069,1l1.239,1.8-.106.209a2.074,2.074,0,0,0,.883,2.8,2.008,2.008,0,0,0,1.41.178l1.969,2.865a2.061,2.061,0,0,0,1.055,2.325,2.129,2.129,0,0,0,.689.216l1.29,1.875-11.365-5.9a.994.994,0,0,0-1.312.376,49.169,49.169,0,0,1-6.535,8.373c-.435.476-.842.916-1.209,1.331a1,1,0,0,0-.2.961l1.247,3.941A18.969,18.969,0,0,0,1183.988,741.869Zm-1.27-22.878.7-1.343a.486.486,0,0,1,.433-.262.479.479,0,0,1,.225.053.488.488,0,0,1,.208.659l-.7,1.343h0a.473.473,0,0,1-.286.24.488.488,0,0,1-.58-.69Zm7.639-.8a.487.487,0,0,1,.433-.264.5.5,0,0,1,.225.056.486.486,0,0,1,.24.287.48.48,0,0,1-.031.37l-.7,1.343a.481.481,0,0,1-.286.243.49.49,0,0,1-.58-.692Zm15.019,7.2a.511.511,0,0,1,.148-.025.489.489,0,0,1,.225.056.491.491,0,0,1,.209.658l-.7,1.345a.487.487,0,0,1-.658.208.492.492,0,0,1-.209-.659h0l.7-1.343A.482.482,0,0,1,1205.376,725.4Zm3.45,6.951.7-1.346a.488.488,0,1,1,.865.452l-.7,1.346a.489.489,0,0,1-.659.206.477.477,0,0,1-.241-.287A.484.484,0,0,1,1208.826,732.347Z" transform="translate(-1174.67 -705.609)" fill="#343240"/>
</svg>
