<svg xmlns="http://www.w3.org/2000/svg" width="42.923" height="42.923" viewBox="0 0 42.923 42.923">
  <g id="Dj_playing" data-name="Dj playing" transform="translate(0.5 0.5)">
    <g id="ICO">
      <path id="Path_240" data-name="Path 240" d="M1281.742,742.589l-.724-.723v-1.445l.724-.723h1.445l.724.723v1.445l-.724.723Z" transform="translate(-1277.406 -702.835)" fill="none" stroke="#343240" stroke-linecap="round" stroke-linejoin="round" stroke-width="1"/>
      <path id="Path_241" data-name="Path 241" d="M1285.818,742.589l-.724-.723v-1.445l.724-.723h1.444l.723.723v1.445l-.723.723Z" transform="translate(-1276.421 -702.835)" fill="none" stroke="#343240" stroke-linecap="round" stroke-linejoin="round" stroke-width="1"/>
      <rect id="Rectangle_8" data-name="Rectangle 8" width="41.923" height="34.694" fill="none" stroke="#343240" stroke-miterlimit="10" stroke-width="1"/>
      <rect id="Rectangle_9" data-name="Rectangle 9" width="41.923" height="7.229" transform="translate(0 34.694)" fill="none" stroke="#343240" stroke-miterlimit="10" stroke-width="1"/>
      <path id="Path_242" data-name="Path 242" d="M1306.457,726.51a13.01,13.01,0,1,1-13.01-13.01A13.009,13.009,0,0,1,1306.457,726.51Z" transform="translate(-1277.546 -709.163)" fill="none" stroke="#343240" stroke-miterlimit="10" stroke-width="1"/>
      <path id="Path_243" data-name="Path 243" d="M1293.025,736.932a10.842,10.842,0,1,1,10.843-10.844A10.854,10.854,0,0,1,1293.025,736.932Z" transform="translate(-1277.124 -708.741)" fill="none" stroke="#343240" stroke-linecap="round" stroke-miterlimit="10" stroke-width="1" stroke-dasharray="0 3.039"/>
      <circle id="Ellipse_4" data-name="Ellipse 4" cx="8.674" cy="8.674" r="8.674" transform="translate(7.227 8.674)" fill="none" stroke="#343240" stroke-linecap="round" stroke-miterlimit="10" stroke-width="1" stroke-dasharray="0 3.014"/>
      <path id="Path_244" data-name="Path 244" d="M1292.181,731.752a6.506,6.506,0,1,1,6.5-6.507A6.512,6.512,0,0,1,1292.181,731.752Z" transform="translate(-1276.28 -707.898)" fill="none" stroke="#343240" stroke-linecap="round" stroke-miterlimit="10" stroke-width="1" stroke-dasharray="0 2.975"/>
      <path id="Path_245" data-name="Path 245" d="M1291.76,729.161a4.337,4.337,0,1,1,4.337-4.338A4.343,4.343,0,0,1,1291.76,729.161Z" transform="translate(-1275.859 -707.475)" fill="none" stroke="#343240" stroke-linecap="round" stroke-miterlimit="10" stroke-width="1" stroke-dasharray="0 2.895"/>
      <line id="Line_22" data-name="Line 22" y2="8.674" transform="translate(34.694 17.348)" fill="none" stroke="#343240" stroke-miterlimit="10" stroke-width="1"/>
      <path id="Path_246" data-name="Path 246" d="M1305.451,716.41a4.331,4.331,0,0,0,0,8.169Z" transform="translate(-1272.202 -708.46)" fill="none" stroke="#343240" stroke-miterlimit="10" stroke-width="1"/>
      <path id="Path_247" data-name="Path 247" d="M1307.218,716.41v8.169a4.331,4.331,0,0,0,0-8.169Z" transform="translate(-1271.077 -708.46)" fill="none" stroke="#343240" stroke-miterlimit="10" stroke-width="1"/>
      <rect id="Rectangle_10" data-name="Rectangle 10" width="2.892" height="4.337" transform="translate(33.249 25.298)" fill="none" stroke="#343240" stroke-miterlimit="10" stroke-width="1"/>
      <path id="Path_248" data-name="Path 248" d="M1309.82,713.2h-.81a.809.809,0,0,1-.808-.808v-.14a.5.5,0,0,0-.5-.5h-1.9a.494.494,0,0,0-.5.5v.14a.808.808,0,0,1-.809.808h-.81a.549.549,0,0,0-.55.549v1.073a.549.549,0,0,0,.55.548h.81a.809.809,0,0,1,.809.811V727.2a.456.456,0,0,0,.456.454h1.98a.456.456,0,0,0,.456-.454V716.178a.81.81,0,0,1,.808-.811h.81a.549.549,0,0,0,.551-.548v-1.073A.549.549,0,0,0,1309.82,713.2Z" transform="translate(-1272.062 -709.585)" fill="none" stroke="#343240" stroke-miterlimit="10" stroke-width="1"/>
      <path id="Path_249" data-name="Path 249" d="M1309.82,713.2h-.81a.809.809,0,0,1-.808-.808v-.14a.5.5,0,0,0-.5-.5h-1.9a.494.494,0,0,0-.5.5v.14a.808.808,0,0,1-.809.808h-.81a.549.549,0,0,0-.55.549v1.073a.549.549,0,0,0,.55.548h.81a.809.809,0,0,1,.809.811V727.2a.456.456,0,0,0,.456.454h1.98a.456.456,0,0,0,.456-.454V716.178a.81.81,0,0,1,.808-.811h.81a.549.549,0,0,0,.551-.548v-1.073A.549.549,0,0,0,1309.82,713.2Z" transform="translate(-1272.062 -709.585)" fill="none" stroke="#343240" stroke-miterlimit="10" stroke-width="1"/>
      <line id="Line_23" data-name="Line 23" x2="2.891" y2="2.89" transform="translate(36.14 26.022)" fill="none" stroke="#343240" stroke-miterlimit="10" stroke-width="1"/>
      <rect id="Rectangle_11" data-name="Rectangle 11" width="5.781" height="2.89" transform="translate(33.973 36.863)" fill="none" stroke="#343240" stroke-linecap="round" stroke-linejoin="round" stroke-width="1"/>
    </g>
  </g>
</svg>
