<svg xmlns="http://www.w3.org/2000/svg" width="17.988" height="17.988" viewBox="0 0 17.988 17.988">
  <path id="Icon_ionic-logo-linkedin" data-name="Icon ionic-logo-linkedin" d="M21.05,4.5H6.037A1.467,1.467,0,0,0,4.5,5.9V20.947a1.583,1.583,0,0,0,1.537,1.542H21.045a1.5,1.5,0,0,0,1.443-1.542V5.9A1.379,1.379,0,0,0,21.05,4.5ZM10.076,19.494H7.5V11.482h2.577Zm-1.2-9.231H8.858A1.323,1.323,0,0,1,7.5,8.881,1.331,1.331,0,0,1,8.89,7.5a1.327,1.327,0,0,1,1.378,1.382A1.331,1.331,0,0,1,8.876,10.263Zm10.618,9.231H16.917V15.113c0-1.05-.375-1.766-1.307-1.766a1.41,1.41,0,0,0-1.321.951,1.735,1.735,0,0,0-.089.633v4.564H11.622V11.482H14.2V12.6a2.609,2.609,0,0,1,2.324-1.3c1.692,0,2.971,1.115,2.971,3.519v4.681Z" transform="translate(-4.5 -4.5)" fill="#253237"/>
</svg>
