<svg xmlns="http://www.w3.org/2000/svg" width="32.327" height="18.27" viewBox="0 0 32.327 18.27">
  <path id="Icon_metro-bicycle" data-name="Icon metro-bicycle" d="M13.03,24.3H8.72a.869.869,0,0,1-.7-1.4L10.6,19.456A4.316,4.316,0,0,0,8.72,19.03a4.23,4.23,0,0,0-3.1,1.29,4.375,4.375,0,0,0,0,6.2,4.23,4.23,0,0,0,3.1,1.29,4.255,4.255,0,0,0,2.787-1A4.308,4.308,0,0,0,13.03,24.3Zm-2.553-1.757H13.03A4.3,4.3,0,0,0,12,20.513Zm6.589,0,3.953-5.271H14.431l-1.359,1.812a5.857,5.857,0,0,1,1.73,3.459Zm15.374.879a4.405,4.405,0,0,0-4.393-4.393,4.511,4.511,0,0,0-1.661.329l2.388,3.569a.885.885,0,0,1,.137.673.8.8,0,0,1-.371.549.813.813,0,0,1-.494.151.8.8,0,0,1-.728-.4l-2.388-3.569a4.387,4.387,0,0,0,6.218,6.191,4.23,4.23,0,0,0,1.29-3.1Zm1.757,0a6.163,6.163,0,0,1-6.15,6.15,6.163,6.163,0,0,1-6.15-6.15A5.993,5.993,0,0,1,22.44,20.9a6.189,6.189,0,0,1,1.5-2.052l-.892-1.345-4.846,6.438a.8.8,0,0,1-.7.357H14.8a5.941,5.941,0,0,1-2.045,3.761,5.946,5.946,0,0,1-4.036,1.51,5.923,5.923,0,0,1-4.345-1.805,6.131,6.131,0,0,1,0-8.689A5.923,5.923,0,0,1,8.72,17.273a6.079,6.079,0,0,1,2.951.755l1.881-2.512H10.477a.879.879,0,0,1,0-1.757h5.271v1.757H21.72l-1.167-1.757H17.505a.879.879,0,0,1,0-1.757h3.514a.853.853,0,0,1,.728.384l3.665,5.491A6.147,6.147,0,0,1,34.2,23.423Z" transform="translate(-2.221 -11.652)" fill="none" stroke="#253237" stroke-width="0.7"/>
</svg>
