<svg xmlns="http://www.w3.org/2000/svg" width="45.181" height="47.294" viewBox="0 0 45.181 47.294">
  <g id="Books" transform="translate(0.75 0.75)">
    <g id="ICO">
      <g id="Group_18" data-name="Group 18">
        <path id="Path_504" data-name="Path 504" d="M1312.31,613.8v.677" transform="translate(-1267.879 -611.898)" fill="#070606"/>
        <path id="Path_505" data-name="Path 505" d="M1318.412,650.745h-35.164a4.089,4.089,0,1,1,0-8.178h35.164Z" transform="translate(-1275.886 -604.951)" fill="none" stroke="#343240" stroke-linecap="round" stroke-miterlimit="10" stroke-width="1.5"/>
        <line id="Line_82" data-name="Line 82" x1="4.088" transform="translate(6.544 41.705)" fill="none" stroke="#343240" stroke-linecap="round" stroke-miterlimit="10" stroke-width="1.5"/>
        <line id="Line_83" data-name="Line 83" x1="22.897" transform="translate(13.904 41.705)" fill="none" stroke="#343240" stroke-linecap="round" stroke-miterlimit="10" stroke-width="1.5"/>
        <line id="Line_84" data-name="Line 84" x2="3.272" transform="translate(39.254 40.07)" fill="none" stroke="#343240" stroke-linecap="round" stroke-miterlimit="10" stroke-width="1.5"/>
        <line id="Line_85" data-name="Line 85" x2="3.272" transform="translate(39.254 43.341)" fill="none" stroke="#343240" stroke-linecap="round" stroke-miterlimit="10" stroke-width="1.5"/>
        <path id="Path_506" data-name="Path 506" d="M1279.794,639.229a3.271,3.271,0,1,1,3.273-3.27" transform="translate(-1276.523 -607.337)" fill="none" stroke="#343240" stroke-linecap="round" stroke-miterlimit="10" stroke-width="1.5"/>
        <path id="Path_507" data-name="Path 507" d="M1283.067,632.006a3.271,3.271,0,1,0-5.414,2.453,3.212,3.212,0,0,1,4.286,0" transform="translate(-1276.523 -608.292)" fill="none" stroke="#343240" stroke-linecap="round" stroke-miterlimit="10" stroke-width="1.5"/>
        <path id="Path_508" data-name="Path 508" d="M1283.067,628.054a3.271,3.271,0,1,0-5.414,2.453,3.215,3.215,0,0,1,4.286,0" transform="translate(-1276.523 -609.246)" fill="none" stroke="#343240" stroke-linecap="round" stroke-miterlimit="10" stroke-width="1.5"/>
        <path id="Path_509" data-name="Path 509" d="M1283.067,624.1a3.271,3.271,0,1,0-5.414,2.453,3.215,3.215,0,0,1,4.286,0" transform="translate(-1276.523 -610.201)" fill="none" stroke="#343240" stroke-linecap="round" stroke-miterlimit="10" stroke-width="1.5"/>
        <path id="Path_510" data-name="Path 510" d="M1316.674,612.269h-34.5a2.374,2.374,0,0,0-2.375,2.373V622.9a59.908,59.908,0,0,1-3.271,8.178,3.229,3.229,0,0,1,0,4.907,3.229,3.229,0,0,1,0,4.907,3.272,3.272,0,0,0,3.271,3.27v9.813a4.09,4.09,0,0,1,4.089-4.088h35.164V614.642A2.372,2.372,0,0,0,1316.674,612.269Z" transform="translate(-1276.523 -612.269)" fill="none" stroke="#343240" stroke-linecap="round" stroke-miterlimit="10" stroke-width="1.5"/>
      </g>
      <line id="Line_86" data-name="Line 86" y2="2.453" transform="translate(0.65 27.569)" fill="none" stroke="#343240" stroke-linecap="round" stroke-miterlimit="10" stroke-width="1.5"/>
    </g>
  </g>
</svg>
