<svg xmlns="http://www.w3.org/2000/svg" width="21" height="21" viewBox="0 0 21 21">
  <g id="Group_9301" data-name="Group 9301" transform="translate(-144 -410)">
    <path id="Path_50310" data-name="Path 50310" d="M10.5,0A10.5,10.5,0,1,1,0,10.5,10.5,10.5,0,0,1,10.5,0Z" transform="translate(144 410)" fill="rgba(184,184,255,0.33)"/>
    <path id="Icon_awesome-linkedin-in" data-name="Icon awesome-linkedin-in" d="M1.569,7.011H.116V2.33H1.569ZM.842,1.692a.846.846,0,1,1,.842-.85A.849.849,0,0,1,.842,1.692ZM7.009,7.011H5.558V4.732c0-.543-.011-1.239-.756-1.239s-.871.59-.871,1.2V7.011H2.48V2.33H3.873v.638h.02a1.527,1.527,0,0,1,1.375-.756c1.471,0,1.741.969,1.741,2.227V7.011Z" transform="translate(151 416.999)" fill="#9381ff"/>
  </g>
</svg>
