<svg id="skipping-rope" xmlns="http://www.w3.org/2000/svg" width="21.588" height="21.588" viewBox="0 0 21.588 21.588">
  <path id="Path_50322" data-name="Path 50322" d="M47.54,385.5H45v-5.08L46.27,380l1.27.423Z" transform="translate(-43.095 -363.915)" fill="#253237"/>
  <path id="Path_50323" data-name="Path 50323" d="M405,385.5h2.54v-5.08L406.27,380l-1.27.423Z" transform="translate(-387.857 -363.915)" fill="#253237"/>
  <path id="Path_50324" data-name="Path 50324" d="M66.349,82.619V78.175a3.175,3.175,0,0,0-6.349,0v8.889l.635.423.635-.423V78.175a1.9,1.9,0,0,1,3.81,0v4.445a3.178,3.178,0,0,0,3.175,3.175l.423-.635-.423-.635A1.907,1.907,0,0,1,66.349,82.619Z" transform="translate(-57.46 -71.825)" fill="rgba(37,50,55,0.8)"/>
  <path id="Path_50325" data-name="Path 50325" d="M258.175,10.794V3.175a1.9,1.9,0,1,1,3.81,0V15.239l.635.423.635-.423V3.175a3.175,3.175,0,1,0-6.349,0v7.619a1.907,1.907,0,0,1-1.9,1.9v1.27A3.178,3.178,0,0,0,258.175,10.794Z" transform="translate(-244.206)" fill="#253237"/>
  <path id="Path_50326" data-name="Path 50326" d="M0,360H6.349v1.27H0Z" transform="translate(0 -344.761)" fill="rgba(37,50,55,0.85)"/>
  <path id="Path_50327" data-name="Path 50327" d="M360,360h6.349v1.27H360Z" transform="translate(-344.761 -344.761)" fill="rgba(37,50,55,0.85)"/>
</svg>
