<svg xmlns="http://www.w3.org/2000/svg" width="96.674" height="44.771" viewBox="0 0 96.674 44.771">
  <path id="Shape_129" data-name="Shape 129" d="M1473.692,3020.415a29.273,29.273,0,0,1-3.715-1.282l-1.435-.685c-.166-.082-.287-.155-.453-.239a23.292,23.292,0,0,1-2.55-1.528c-.275-.185-.5-.345-.779-.528l-1.562-1.1c-.143-.1-.275-.177-.4-.278-.155-.121-.193-.167-.375-.291l-4.079-2.653a17.7,17.7,0,0,0-1.877-.888,21.591,21.591,0,0,0-9.172-1.282v-2.534a23.46,23.46,0,0,1,8.686.967,20.8,20.8,0,0,1,4.349,2l5.58,3.877c.149.1.259.175.409.274l2.119,1.316c4.6,2.787,10.575,3.608,16.728,3.29a37.759,37.759,0,0,0,6.639-1,30.876,30.876,0,0,0,3.344-1.033l2.042-.821a44.388,44.388,0,0,0,4.613-2.333c1.49-.82,2.953-1.673,4.492-2.456l1.425-.686c.2-.095.286-.13.49-.218.657-.287,1.325-.585,2.031-.821a23.985,23.985,0,0,1,4.713-1.163,29.487,29.487,0,0,1,6.016-.152,20.276,20.276,0,0,1,8.935,2.742c1.17.662,2.224,1.387,3.3,2.12.558.375,1.452,1.054,2.031,1.369l2.146,1.3a26.267,26.267,0,0,0,2.826,1.344l1.049.392a27.165,27.165,0,0,0,2.709.754v2.591a26.132,26.132,0,0,1-7.859-2.939l-.872-.507c-1.4-.842-2.7-1.792-4.023-2.689a7.473,7.473,0,0,0-.828-.544c-.3-.153-.508-.357-.8-.516l-1.794-.987a16.483,16.483,0,0,0-3.047-1.192,23.9,23.9,0,0,0-12.146-.02c-3.947,1.074-7.176,3.1-10.42,4.909-1.479.818-3.036,1.556-4.636,2.269a32.8,32.8,0,0,1-6.518,2.056,41.464,41.464,0,0,1-8.415.811A35.543,35.543,0,0,1,1473.692,3020.415Zm-5.249-10.781-.016-.012,28.422-19.264a1.862,1.862,0,0,0,.5-2.541l-.226-.342a1.782,1.782,0,0,0-.4-.428,2.17,2.17,0,0,0-1.422-.167l-25.039,5.635a3.891,3.891,0,0,1-4.585-3.057l-.188-.876a3.979,3.979,0,0,1,2.926-4.72c9.18-2.144,18.3-4.186,27.49-6.225l0,0a9.047,9.047,0,0,1,4.079-.872c.315-.047.631-.084.943-.1.012.056.016.117.026.175a9.223,9.223,0,0,1,6.591,4.116l-.011-.005,13.946,21.325c-.166-.01-.332-.027-.5-.032a29.47,29.47,0,0,0-6.016.152,24.069,24.069,0,0,0-4.713,1.162c-.707.235-1.373.534-2.03.82-.205.093-.293.124-.491.22l-1.424.683c-1.54.784-3,1.638-4.493,2.46a44.813,44.813,0,0,1-4.613,2.33l-2.042.821a29.668,29.668,0,0,1-3.344,1.034,38.361,38.361,0,0,1-6.639,1q-1.217.062-2.421.063C1477.467,3012.987,1472.435,3012.052,1468.444,3009.633Zm49.136-19.379a8.588,8.588,0,0,1,2.321-11.776,8.249,8.249,0,0,1,11.564,2.363,8.587,8.587,0,0,1-2.32,11.775,8.2,8.2,0,0,1-4.615,1.425A8.292,8.292,0,0,1,1517.58,2990.255Z" transform="translate(-1447.295 -2976.664)" fill="#ffe32c"/>
</svg>
