<svg xmlns="http://www.w3.org/2000/svg" width="18.438" height="18.438" viewBox="0 0 18.438 18.438">
  <path id="Icon_awesome-twitter-square" data-name="Icon awesome-twitter-square" d="M16.462,2.25H1.975A1.976,1.976,0,0,0,0,4.225V18.712a1.976,1.976,0,0,0,1.975,1.975H16.462a1.976,1.976,0,0,0,1.975-1.975V4.225A1.976,1.976,0,0,0,16.462,2.25ZM14.45,8.785c.008.115.008.235.008.35a7.627,7.627,0,0,1-7.68,7.68A7.644,7.644,0,0,1,2.634,15.6a5.687,5.687,0,0,0,.65.033,5.412,5.412,0,0,0,3.35-1.152,2.7,2.7,0,0,1-2.523-1.873,2.909,2.909,0,0,0,1.218-.049,2.7,2.7,0,0,1-2.161-2.65V9.88a2.7,2.7,0,0,0,1.218.342,2.693,2.693,0,0,1-1.2-2.247,2.665,2.665,0,0,1,.366-1.362A7.664,7.664,0,0,0,9.116,9.436,2.7,2.7,0,0,1,13.721,6.97a5.289,5.289,0,0,0,1.712-.65,2.692,2.692,0,0,1-1.185,1.486,5.371,5.371,0,0,0,1.556-.42A5.681,5.681,0,0,1,14.45,8.785Z" transform="translate(0 -2.25)" fill="#253237"/>
</svg>
